<svg width="66" height="66" viewBox="0 0 66 66" fill="none" xmlns="http://www.w3.org/2000/svg">
<rect width="66" height="66" rx="8" fill="white"/>
<path d="M29.0444 52.6253C28.7426 52.6253 28.4258 52.5951 28.109 52.5046C26.0421 51.9916 24.7749 49.8946 25.2878 47.8277L33.0122 16.9303C33.5402 14.8634 35.6372 13.6112 37.7041 14.1091C39.771 14.6371 41.0232 16.7342 40.5102 18.801L32.7859 49.6985C32.3483 51.4485 30.7793 52.6253 29.0444 52.6253Z" fill="#9328FF"/>
<path d="M47.2123 44.9011C46.2166 44.9011 45.2359 44.5239 44.4816 43.7696C42.9729 42.2609 42.9729 39.8169 44.4816 38.3082L49.4753 33.3146L44.4816 28.3209C42.9729 26.8122 42.9729 24.3682 44.4816 22.8595C45.9903 21.3508 48.4343 21.3508 49.943 22.8595L57.6673 30.5839C59.176 32.0925 59.176 34.5366 57.6673 36.0452L49.943 43.7696C49.1886 44.5239 48.208 44.9011 47.2123 44.9011Z" fill="#4A3AFF"/>
<path d="M18.5865 44.9011C17.5908 44.9011 16.6102 44.5239 15.8559 43.7696L8.1315 36.0452C6.62283 34.5366 6.62283 32.0925 8.1315 30.5839L15.8559 22.8595C17.3645 21.3508 19.8086 21.3508 21.3172 22.8595C22.8259 24.3682 22.8259 26.8122 21.3172 28.3209L16.3235 33.3146L21.3172 38.3082C22.8259 39.8169 22.8259 42.2609 21.3172 43.7696C20.5629 44.5239 19.5823 44.9011 18.5865 44.9011Z" fill="#4A3AFF"/>
</svg>
