<svg width="66" height="66" viewBox="0 0 66 66" fill="none" xmlns="http://www.w3.org/2000/svg">
<rect width="66" height="66" rx="8" fill="white"/>
<rect x="17.2588" y="17.2589" width="31.48" height="31.4814" rx="8" fill="#4A3AFF"/>
<rect x="23.7041" y="8" width="4.8039" height="7.4074" rx="2.40195" fill="#702DFF"/>
<rect x="30.5972" y="8.00003" width="4.8039" height="7.4074" rx="2.40195" fill="#702DFF"/>
<rect x="37.492" y="8.00003" width="4.8039" height="7.4074" rx="2.40195" fill="#702DFF"/>
<rect x="8" y="42.296" width="4.80411" height="7.40707" rx="2.40206" transform="rotate(-90 8 42.296)" fill="#4CBFFF"/>
<rect x="8" y="35.4017" width="4.80411" height="7.40707" rx="2.40206" transform="rotate(-90 8 35.4017)" fill="#4CBFFF"/>
<rect x="8" y="28.5083" width="4.80411" height="7.40707" rx="2.40206" transform="rotate(-90 8 28.5083)" fill="#4CBFFF"/>
<rect x="50.5911" y="42.2959" width="4.80411" height="7.40707" rx="2.40206" transform="rotate(-90 50.5911 42.2959)" fill="#4CBFFF"/>
<rect x="50.591" y="35.4017" width="4.80411" height="7.40707" rx="2.40206" transform="rotate(-90 50.591 35.4017)" fill="#4CBFFF"/>
<rect x="50.591" y="28.5083" width="4.80411" height="7.40707" rx="2.40206" transform="rotate(-90 50.591 28.5083)" fill="#4CBFFF"/>
<rect x="23.7041" y="50.5926" width="4.8039" height="7.4074" rx="2.40195" fill="#702DFF"/>
<rect x="30.5972" y="50.5926" width="4.8039" height="7.4074" rx="2.40195" fill="#702DFF"/>
<rect x="37.492" y="50.5926" width="4.8039" height="7.4074" rx="2.40195" fill="#702DFF"/>
</svg>
